<svg width="64" height="64" viewBox="0 0 64 64" fill="none" xmlns="http://www.w3.org/2000/svg">
<g clip-path="url(#clip0_1067_158)">
<path d="M9.50098 7.616H54.991V56.136H9.50098V7.616Z" fill="white"/>
<path d="M63.716 6.962V4.353C63.716 2.111 61.924 0.278996 59.661 0.138996H59.643C59.5594 0.13495 59.4757 0.132949 59.392 0.132996H52.545C52.2314 0.13425 51.9188 0.167421 51.612 0.231996H51.371C51.163 0.290996 51.012 0.297996 50.826 0.340996C49.208 0.891996 47.953 3.106 46.598 3.106C45.053 3.106 43.604 0.764996 41.903 0.389996C41.596 0.348996 41.287 0.309996 40.921 0.231996H36.788C36.506 0.371996 36.358 0.402996 36.16 0.474996C34.619 1.382 33.362 3.47 31.912 3.349C30.462 3.224 29.112 1.137 27.558 0.328996C27.3088 0.308307 27.0606 0.27728 26.814 0.235996H22.656C22.29 0.313996 21.979 0.352996 21.675 0.393996C19.972 0.768996 18.523 3.11 16.978 3.11C15.624 3.11 14.369 0.895996 12.75 0.344996C12.565 0.302996 12.412 0.294996 12.206 0.235996H12.101C11.7952 0.171376 11.4836 0.138203 11.171 0.136996H4.321C1.934 0.136996 0 2.028 0 4.359V6.967C0.043 7.231 0.053 7.422 0.085 7.661C0.515 9.72 2.256 11.315 2.256 13.037C2.256 15.006 0.42 16.847 0.124 19.014C0.089 19.401 0.062 19.796 0 20.265V25.518C0.113 25.882 0.136 26.066 0.192 26.317C0.904 28.28 2.546 29.878 2.447 31.72C2.354 33.564 0.711 35.289 0.073 37.263C0.0551421 37.5798 0.0308037 37.8962 0 38.212L0 43.499C0.062 43.968 0.089 44.362 0.125 44.754C0.421 46.915 2.257 48.754 2.257 50.725C2.257 52.446 0.516 54.046 0.086 56.101C0.053 56.342 0.043 56.533 0 56.802V59.406C0 61.646 1.792 63.487 4.055 63.619H4.069C4.157 63.625 4.236 63.629 4.322 63.629H11.171C11.607 63.629 12.027 63.561 12.426 63.448C12.535 63.427 12.636 63.413 12.751 63.387C14.37 62.836 15.625 60.624 16.979 60.624C18.524 60.624 19.974 62.959 21.676 63.338C21.981 63.375 22.291 63.418 22.658 63.493H26.789C27.071 63.353 27.219 63.32 27.417 63.248C28.96 62.346 30.215 60.254 31.665 60.377C33.115 60.499 34.464 62.591 36.019 63.397C36.25 63.42 36.49 63.444 36.764 63.49H40.922C41.288 63.415 41.6 63.372 41.904 63.335C43.605 62.956 45.054 60.621 46.599 60.621C47.953 60.621 49.208 62.833 50.827 63.384C51.013 63.423 51.164 63.437 51.372 63.49H51.466C51.811 63.576 52.172 63.625 52.546 63.625H59.393C61.783 63.625 63.716 61.733 63.716 59.402V56.797C63.671 56.528 63.663 56.337 63.63 56.096C63.196 54.041 61.461 52.441 61.461 50.72C61.461 48.753 63.294 46.91 63.592 44.749C63.622 44.357 63.654 43.963 63.716 43.494V38.24C63.602 37.879 63.58 37.691 63.524 37.44C62.812 35.479 61.168 33.881 61.267 32.039C61.364 30.194 63.004 28.472 63.642 26.497C63.66 26.197 63.681 25.894 63.716 25.549V20.259C63.6628 19.8433 63.6215 19.4261 63.592 19.008C63.294 16.841 61.461 14.998 61.461 13.031C61.461 11.309 63.196 9.714 63.63 7.655C63.663 7.418 63.671 7.228 63.716 6.963V6.962ZM52.89 54.536H10.83V9.056H52.89V54.536" fill="#405967"/>
<path d="M23.611 29.595C23.6113 30.0402 23.4348 30.4673 23.1204 30.7825C22.8059 31.0977 22.3793 31.2752 21.934 31.276H14.914C14.6932 31.2763 14.4745 31.233 14.2704 31.1486C14.0664 31.0642 13.8809 30.9404 13.7248 30.7842C13.5687 30.6281 13.4448 30.4427 13.3605 30.2386C13.2761 30.0345 13.2328 29.8158 13.233 29.595V13.575C13.233 12.649 13.983 11.898 14.914 11.898H21.934C22.86 11.898 23.611 12.649 23.611 13.575V29.595Z" fill="#F7941E"/>
<path d="M50.41 51.01C50.41 51.939 49.342 52.692 48.026 52.692H38.05C36.725 52.692 35.663 51.939 35.663 51.01V34.99C35.663 34.063 36.725 33.312 38.05 33.312H48.026C49.341 33.312 50.41 34.063 50.41 34.99V51.01" fill="#B2BEC3"/>
<path d="M31.818 33.31C32.793 33.31 33.583 34.706 33.583 36.423V49.463C33.583 51.195 32.793 52.584 31.818 52.584H14.998C14.025 52.584 13.235 51.195 13.235 49.463V36.433C13.235 34.715 14.025 33.32 14.998 33.32H31.818V33.31Z" fill="#DA1C5C"/>
<path d="M48.26 11.895C49.448 11.895 50.413 13.3 50.413 15.03V28.14C50.413 29.88 49.448 31.281 48.26 31.281H27.738C26.551 31.281 25.59 29.88 25.59 28.14V15.03C25.59 13.3 26.551 11.895 27.738 11.895H48.26Z" fill="#27AAE1"/>
</g>
<defs>
<clipPath id="clip0_1067_158">
<rect width="64" height="64" fill="white"/>
</clipPath>
</defs>
</svg>
