<svg width="64" height="64" viewBox="0 0 64 64" fill="none" xmlns="http://www.w3.org/2000/svg">
<path d="M5.90003 62C2.60003 62 1.10003 59.6 2.60003 56.7L29.3 4.20002C30.8 1.30002 33.2 1.30002 34.7 4.20002L61.4 56.7C62.9 59.6 61.4 62 58.1 62H5.90003Z" fill="#F9CA24"/>
<path d="M27.8 23.6L30.6 42.1C30.9 43.9 33.2 43.9 33.5 42.1L36.2 23.6C36.7 16.4 27.3 16.4 27.8 23.6Z" fill="#2D3436"/>
<path d="M32 53.8C34.3196 53.8 36.2001 51.9196 36.2001 49.6C36.2001 47.2804 34.3196 45.4 32 45.4C29.6805 45.4 27.8 47.2804 27.8 49.6C27.8 51.9196 29.6805 53.8 32 53.8Z" fill="#2D3436"/>
</svg>
